<svg xmlns="http://www.w3.org/2000/svg" width="153" height="23" fill="none"><path fill="#ffffff" d="M25.05 12.34C24.9 5.552 19.354.108 12.532.108 5.614.108 0 5.717 0 12.628h5.01c0 5.526 4.489 10.01 10.02 10.01 5.436 0 9.87-4.333 10.02-9.736v-.562Zm-10.02 5.293a5 5 0 0 1-5.01-5.005 5 5 0 0 1 5.01-5.005 5 5 0 0 1 5.01 5.005 5 5 0 0 1-5.01 5.005ZM96.371 4.77c-4.365 0-7.92 3.525-7.92 7.844 0 4.402 3.473 7.844 7.92 7.844 4.434 0 7.92-3.442 7.92-7.844-.014-4.32-3.555-7.843-7.92-7.843Zm0 12.41c-2.333 0-4.035-2.083-4.035-4.552 0-2.468 1.688-4.553 4.035-4.553 2.279 0 3.994 2.126 3.994 4.553 0 2.469-1.688 4.553-3.994 4.553ZM61.575 5.113l-.013 1.742s-.179-.22-.33-.384c-.74-.891-2.182-1.687-4.282-1.687-3.885 0-7.056 3.524-7.056 7.844 0 4.333 3.171 7.844 7.056 7.844 2.114 0 3.541-.795 4.282-1.687.151-.178.33-.384.33-.384l.014 1.742h3.843V5.113h-3.843Zm.234 7.515c0 2.564-1.579 4.553-3.967 4.553s-4.063-1.989-4.063-4.553 1.675-4.553 4.063-4.553c2.388-.013 3.967 1.975 3.967 4.553 0-.014 0-.014 0 0ZM133.446 5.113l-.014 1.742s-.179-.22-.33-.384c-.741-.891-2.182-1.687-4.282-1.687-3.885 0-7.055 3.524-7.055 7.844 0 4.333 3.17 7.844 7.055 7.844 2.114 0 3.541-.795 4.282-1.687.151-.178.33-.384.33-.384l.014 1.742h3.843V5.113h-3.843Zm.233 7.515c0 2.564-1.579 4.553-3.967 4.553s-4.063-1.989-4.063-4.553 1.675-4.553 4.063-4.553c2.388-.013 3.967 1.975 3.967 4.553 0-.014 0-.014 0 0ZM44.116 10.626h3.885c-.948-3.675-3.748-5.855-7.522-5.855-4.516 0-7.92 3.373-7.92 7.843s3.404 7.844 7.92 7.844c3.774 0 6.574-2.18 7.522-5.855h-3.899c-.7 1.577-1.949 2.564-3.623 2.564-2.375 0-4.036-1.975-4.036-4.553 0-2.591 1.661-4.552 4.036-4.552 1.674 0 2.937.987 3.637 2.564ZM72.159 5.113H68.85V20.13h3.857V10.9l4.612 5.897 4.584-5.897v9.23h3.857V5.112h-3.308l-5.16 6.596-5.134-6.596ZM120.818 5.113h-4.544l-5.477 6.596V5.113h-3.857V20.13h3.857v-6.486l6.109 6.486h4.927l-7.275-7.624 6.26-7.392ZM144.441 20.13h3.857V8.35h4.543V5.113h-12.93V8.35h4.53v11.78Z"/></svg>